<svg width="64" height="64" viewBox="0 0 64 64" fill="none" xmlns="http://www.w3.org/2000/svg">
    <rect width="64" height="64" rx="32" fill="#03000E"/>
    <path d="M20.0802 52V14.56H34.8742C35.2382 14.56 35.6715 14.5773 36.1742 14.612C36.6768 14.6293 37.1622 14.6813 37.6302 14.768C39.6582 15.08 41.3568 15.7733 42.7262 16.848C44.1128 17.9227 45.1528 19.2833 45.8462 20.93C46.5395 22.5593 46.8862 24.3707 46.8862 26.364C46.8862 28.34 46.5308 30.1513 45.8202 31.798C45.1268 33.4273 44.0868 34.788 42.7002 35.88C41.3308 36.9547 39.6408 37.648 37.6302 37.96C37.1622 38.0293 36.6768 38.0813 36.1742 38.116C35.6715 38.1507 35.2382 38.168 34.8742 38.168H24.7082V52H20.0802ZM24.7082 33.774H34.7182C35.0475 33.774 35.4202 33.7567 35.8362 33.722C36.2695 33.6873 36.6768 33.6267 37.0582 33.54C38.2542 33.2627 39.2248 32.76 39.9702 32.032C40.7328 31.2867 41.2875 30.42 41.6342 29.432C41.9808 28.4267 42.1542 27.404 42.1542 26.364C42.1542 25.324 41.9808 24.31 41.6342 23.322C41.2875 22.3167 40.7328 21.4413 39.9702 20.696C39.2248 19.9507 38.2542 19.448 37.0582 19.188C36.6768 19.084 36.2695 19.0233 35.8362 19.006C35.4202 18.9713 35.0475 18.954 34.7182 18.954H24.7082V33.774ZM43.0162 52V46.904H48.1122V52H43.0162Z" fill="white"/>
</svg>
