<svg xmlns="http://www.w3.org/2000/svg" width="200" height="32">
    <path d="M128.4 18l10.8-1.2a.3.3 0 0 0 .3-.4c-1-2.6-2.4-4-5.2-4-3.5 0-5.3 2.4-6 5.7m21.8 2c0 3.8 1.7 7.6 6 7.6s6-3.8 6-7.6-1.6-7.6-6-7.6-6 3.8-6 7.6zm46 1l-3.6.4a10.8 10.8 0 0 0-4.2 1 2.6 2.6 0 0 0-1.4 2.4c0 2 1.4 2.8 3.4 2.8a6 6 0 0 0 4-1.5A5.2 5.2 0 0 0 196 22v-1zM51 18l10.6-1a.3.3 0 0 0 .2-.4c-1-2.6-2.5-4-5.2-4-3.6 0-5.3 2.4-6 5.7zm73 2c0-6.3 3.7-11.4 10.3-11.4 6 0 9.6 4.3 9.7 10.2a1.2 1.2 0 0 1-1 1.3l-13.7 1.7a.8.8 0 0 0-.7 1c.8 3 2.6 5 5.7 5a5 5 0 0 0 5-3v-.3l3.6 2h-.2a9.2 9.2 0 0 1-8.5 5c-6.6 0-10.2-5.2-10.2-11.4zm-29-8.3a7.3 7.3 0 0 1 6.5-3 6.6 6.6 0 0 1 5 1.7 8.6 8.6 0 0 1 .8 1.3.3.3 0 0 0 .4 0 8 8 0 0 1 6.8-3 6.2 6.2 0 0 1 4.7 1.7 7 7 0 0 1 1.8 5.2V31h-4V16.5c0-2.3-.8-4-3.4-4a4.7 4.7 0 0 0-4 2.4 12.6 12.6 0 0 0-1.6 6.7V31h-4V16.5c0-2.3-.8-4-3.4-4a4.5 4.5 0 0 0-4 2.4 12.7 12.7 0 0 0-1.6 6.7V31h-4V9h3.3zm79 .6h-4V9h8v22h-4V12.3zM1 31V9h4v22H1zm13-19.3a9 9 0 0 1 7.4-3 6.5 6.5 0 0 1 4.8 1.7 7 7 0 0 1 1.8 5.2V31h-4V16.5c0-2.4-1-4-3.7-4a5 5 0 0 0-4.4 2.4 12 12 0 0 0-2 6.7V31h-4V9h3.4zm148-.5V1h4v30h-3.3l-.7-2.4a8.6 8.6 0 0 1-6.2 2.8c-7 0-10-5-10-11.4s3-11.4 10-11.4a9 9 0 0 1 6 2.6zm34 17.4a8.4 8.4 0 0 1-6.6 2.8c-4.3 0-7-2.3-7-6.6a6 6 0 0 1 2.8-5.2c2-1.4 5-1.7 7.3-2l2.6-.3a1.2 1.2 0 0 0 .6-1.2c-.3-2.5-2-3.6-4.5-3.6-2.3 0-3.5 1-4.4 3v.2l-3.4-2a7 7 0 0 1 2.5-3.3 8.7 8.7 0 0 1 5.5-1.7 9.3 9.3 0 0 1 6.3 2c1.8 1.7 2.2 4 2.2 6.4v14h-3.2zM46.6 20c0-6.3 3.5-11.4 10.2-11.4 6 0 9.6 4.3 9.7 10.2a1.2 1.2 0 0 1-1 1.3l-13.8 1.7a.8.8 0 0 0-.5.4.8.8 0 0 0 0 .7c.6 3 2.4 5 5.6 5a5 5 0 0 0 4.8-3v-.3l3.8 2h-.2a9.2 9.2 0 0 1-8.4 5c-6.6 0-10.2-5.2-10.2-11.4zm37-4a4.8 4.8 0 0 0-5-3.6c-4.2 0-5.8 3.8-5.8 7.6s1.6 7.6 6 7.6a4.8 4.8 0 0 0 5-3.7l3.8 1.2a8.8 8.8 0 0 1-9 6.2c-6.5 0-10-5.2-10-11.4S72 8.6 78.5 8.6a8.8 8.8 0 0 1 9 6v.2l-4 1.3zM39 9h5v3.2h-4a1 1 0 0 0-1 1v14.5h4V31h-8V12.2h-4V9h3.6a.4.4 0 0 0 .4-.4V1h4v8zM176 .3a2.7 2.7 0 1 1-2.7 2.7A2.7 2.7 0 0 1 176 .3zM3 .3A2.7 2.7 0 1 1 .3 3 2.7 2.7 0 0 1 3 .3z" />
</svg>