<svg width="58" height="51" xmlns="http://www.w3.org/2000/svg">
  <g fill="#000" fill-rule="nonzero">
    <path d="M.577 44.45c.087-1.53 1.185-2.262 2.534-2.262 1.425 0 2.47.798 2.47 2.328 0 1.038-.784 2.012-1.686 2.766L1.98 48.9v.24h3.84v.853H.588V48.91l1.12-.917a39.854 39.854 0 0 0 1.73-1.477c.522-.47 1.185-1.092 1.185-2 0-.962-.61-1.475-1.534-1.475-.859 0-1.457.448-1.555 1.41H.577zM12.53 46.166c0 2.756-1.197 3.97-2.807 3.97-1.61 0-2.796-1.214-2.796-3.97 0-2.754 1.186-3.978 2.796-3.978 1.61 0 2.806 1.224 2.806 3.978zm-.957 0c0-1.902-.577-3.125-1.85-3.125-1.262 0-1.838 1.223-1.838 3.125 0 1.892.576 3.117 1.838 3.117 1.273 0 1.85-1.225 1.85-3.117zM13.768 49.14h1.805v-5.794h-.217l-1.6 1.083v-1.005l1.589-1.083h1.186v6.8h1.664v.852h-4.427v-.853zM19.075 44.823c0-1.455.968-2.635 2.589-2.635 1.62 0 2.795 1.006 2.795 3.76 0 2.33-.902 4.187-2.893 4.187-1.294 0-2.11-.776-2.284-1.826h.946c.185.645.598.974 1.338.974 1.218 0 1.915-1.04 1.969-2.711h-.24c-.26.317-.87.742-1.783.742-1.393 0-2.437-1.037-2.437-2.491zm.957-.044c0 1.136.74 1.694 1.664 1.694.914 0 1.654-.59 1.654-1.683 0-1.115-.75-1.75-1.675-1.75s-1.643.602-1.643 1.739zM2.206 20.933h1.432c1.378 0 1.83-.692 1.83-2.028v-.802c0-1.239-.337-2.076-1.69-2.076H2.206v4.906zm49.134-.541h1.09c1.492 0 2.136-.519 2.136-2.077v-.212c0-1.246-.359-2.076-1.712-2.076H51.34v4.365zm-8.542-.473h3.777v2.03h-3.777v4.127h4.693v2.052h-6.9V13.975h6.9v2.052h-4.693v3.892zm-6.29 2.147h-3.44v6.062h-2.206V13.975h2.206v6.062h3.44v-6.062h2.206v14.153h-2.207v-6.062zm-7.243-4.552c.017.202.025.415.025.636v.307h-2.112v-.72c0-1.332-.552-2.005-1.631-2.005-1.069 0-1.632.673-1.632 2.005v6.31c0 1.19.397 2.194 1.737 2.194 1.348 0 1.736-.983 1.736-2.194v-.967h2.113v.873c0 2.55-1.21 4.34-3.896 4.34-2.676 0-3.872-1.806-3.872-4.34V17.95c0-2.571 1.243-4.15 3.766-4.15 2.388 0 3.63 1.402 3.766 3.714zm-13.787-1.487H12.45v-2.052h8.261v2.052h-3.028v12.1h-2.206v-12.1zm-6.42-2.052h2.207v14.153H9.06V13.975zm48.143 14.153h-2.43l-2.089-5.684H51.34v5.684h-2.206V13.975h3.767c2.639 0 3.848 1.355 3.848 3.962v.144c0 1.844-.66 3.168-1.827 3.845l2.28 6.202zM23.956 4.014c-7.537 0-14.891-.788-21.988-2.281A1.66 1.66 0 0 0 .004 3.367c0 .728.467 1.386 1.163 1.589C10.572 7.7 20.52 9.15 30.803 9.15c8.036 0 15.87-.875 23.393-2.59 1.491-.34 2.535-1.696 2.535-3.233A3.32 3.32 0 0 0 53.421 0c-.287 0-.573.034-.85.112a106.397 106.397 0 0 1-28.615 3.902zM2.206 22.962v5.166H0V13.975h3.778c2.701 0 3.873 1.633 3.873 4.222v.59c0 2.697-1.28 4.175-4.013 4.175H2.206z"/>
  </g>
</svg>