<svg width="250" height="55" viewBox="0 0 250 55" fill="none" xmlns="http://www.w3.org/2000/svg">
    <path d="M44.007 38.609V19.627c0-2.295.617-3.656 3.162-3.656h11.773c2.544 0 3.161 1.361 3.161 3.657v18.98h-2.901v-18.94c0-.604-.082-.722-.23-.861-.132-.123-.387-.14-.714-.14H47.853c-.327 0-.582.017-.714.14-.149.139-.23.257-.23.862v18.94h-2.902Zm19.65 0a4199.747 4199.747 0 0 1 8.51-20.918c.366-.895.662-1.386 1.126-1.653.728-.42 1.466-.42 2.194 0 .463.267.895.755 1.256 1.654 2.445 6.09 5.981 14.672 8.498 20.917H81.99l-7.52-19.94h-.125l-7.437 19.94h-3.251ZM87.519 15.97h11.026c3.812 0 5.621 2.158 5.621 5.869v13.69c0 1.064-.056 1.784-.603 2.35-.538.556-1.145.729-2.576.729h-9.48c-4.318 0-5.621-3.143-5.621-6.984 0-3.84 1.514-6.553 6.187-6.553h8.625a.567.567 0 0 0 .566-.566v-2.66c0-1.713-1.23-3.18-3.096-3.18H87.519V15.97Zm13.745 19.33v-6.966a.567.567 0 0 0-.566-.567h-8.825c-1.161 0-2.211.403-2.587 1.084-.406.737-.51 1.51-.51 2.774 0 1.267.105 2.377.513 3.147.377.71 1.049 1.14 2.206 1.14h9.114c.455 0 .655-.197.655-.612Zm23.528.99v2.319h-8.223c-7.778 0-9.626-3.651-9.626-11.13 0-7.48 1.97-11.508 9.626-11.508h7.727v2.695h-7.727c-2.749 0-4.406.748-5.364 2.166-.983 1.454-1.277 3.638-1.277 6.458 0 3.902.183 4.869 1.339 6.527.955 1.371 2.549 2.096 5.302 2.096h8.223v.378Zm12.911-17.871v20.19h-2.902v-20.19h-8.258V15.97h19.418v2.448h-8.258Zm29.48.2v19.99h-2.902V19.454c-3.704 5.885-7.668 11.771-11.372 17.656-.707 1.123-1.292 1.746-2.626 1.746-1.572 0-2.146-.867-2.146-2.648V15.971h2.903v19.22c3.759-5.99 7.779-11.979 11.537-17.97.594-.948 1.37-1.494 2.483-1.494 1.849 0 2.123 1.632 2.123 2.892Zm10.858 9.612 11.018 10.378h-3.609c-2.963-2.897-6.31-5.813-9.292-8.69-.948-.916-1.667-1.793-1.667-2.96 0-1.213 1.122-2.304 1.931-3.123 2.545-2.578 5.727-5.353 8.427-7.865h3.534c-3.423 3.285-6.911 6.436-10.341 9.716-.275.263-.79.81-.79 1.272 0 .306.591 1.086.789 1.272Zm-4.252 10.378h-2.901V15.97h2.901v22.638Z" fill="#000"/>
    <path d="M191.555 18.253c1.801-1.893 4.829-2.515 8.86-2.53 4.112-.016 6.919.788 8.582 2.739 1.608 1.886 2.138 4.851 2.141 8.786.002 4.08-.163 7.204-2.046 9.108-1.79 1.81-4.727 2.5-8.677 2.5-3.911 0-7.268-.686-9.06-2.558-1.921-2.009-1.97-5.344-1.97-9.463 0-4 .374-6.694 2.17-8.582Zm2.092 1.584c-1.303 1.347-1.443 4.003-1.443 7.411 0 3.474-.062 6.046 1.422 7.442 1.282 1.206 3.872 1.47 6.789 1.47 2.985 0 5.163-.371 6.441-1.639 1.417-1.405 1.533-3.87 1.533-7.273 0-3.408-.069-5.899-1.372-7.246-1.296-1.34-3.629-1.583-6.602-1.583-2.974 0-5.471.078-6.768 1.418Zm23.58 8.041v10.73h-2.47V18.416c0-2.404.742-2.482 3.018-2.482h13.113v1.996h-12.672c-.945 0-.989.19-.989 1.053v5.484c0 .311.254.566.566.566h8.56c.312 0 .567.254.567.566v1.148a.568.568 0 0 1-.567.566h-8.56a.567.567 0 0 0-.566.566Zm18.871 0v10.73h-2.47V18.454c0-2.404.743-2.482 3.018-2.482h13.114v1.996h-12.673c-.945 0-.989.19-.989 1.053v5.446c0 .311.255.566.567.566h9.126v2.28h-9.126a.568.568 0 0 0-.567.566Z" fill="#E31E25"/>
    <path fill-rule="evenodd" clip-rule="evenodd" d="m14.315 14.4 18.03-4.376c2.018-.49 3.668.858 3.668 2.994v34.141c0 1.282-.99 2.571-2.2 2.865l-18.03 4.375c-2.018.49-3.668-.857-3.668-2.994V30.292a.56.56 0 0 1 .43-.55l14.833-3.658c.604-.149 1.099-.795 1.099-1.437v-3.116c0-.642-.495-1.045-1.1-.895l-14.56 3.59a.55.55 0 0 1-.486-.103.55.55 0 0 1-.216-.446v-6.413c0-1.282.99-2.57 2.2-2.864ZM2.211 4.569 20.213.585c2.027-.449 3.686.924 3.686 3.05v1.94a.56.56 0 0 1-.433.55L8.133 9.846c-1.21.294-2.2 1.583-2.2 2.865v30.936a.562.562 0 0 1-.445.553l-1.803.399C1.658 45.047 0 43.675 0 41.549V7.379c0-1.277.995-2.54 2.211-2.81Z" fill="#E31E25"/>
</svg>
